<!DOCTYPE svg PUBLIC "-//W3C//DTD SVG 1.1//EN" "http://www.w3.org/Graphics/SVG/1.1/DTD/svg11.dtd">
<svg xmlns="http://www.w3.org/2000/svg" xmlns:xlink="http://www.w3.org/1999/xlink" xmlns:jfreesvg="http://www.jfree.org/jfreesvg/svg" width="600" height="540" text-rendering="auto" shape-rendering="auto">
<defs><clipPath id="2399229276557156clip-0"><path d="M 0 0 L 600 0 L 600 540 L 0 540 L 0 0 M 0 0"/></clipPath>
<clipPath id="2399229276557156clip-1"><path d="M 287.8 225.2 L 287.8 825.2 L -252.2 825.2 L -252.2 225.2 L 287.8 225.2 M 287.8 225.2"/></clipPath>
<clipPath id="2399229276557156clip-2"><path d="M 187 59 L 187 454 L 588 454 L 588 59 M 187 59"/></clipPath>
</defs>
<rect x="0" y="0" width="600" height="540" style="fill: rgb(255,255,255); fill-opacity: 1.0" transform="matrix(1,0,0,1,0,0)" clip-path="url(#2399229276557156clip-0)"/><g transform="matrix(1,0,0,1,0,0)"><text x="11.39" y="21.01" style="fill: rgb(0,0,0); fill-opacity: 1.0; font-family: Tahoma; font-size: 20px; font-weight: bold; " clip-path="url(#2399229276557156clip-0)">Approximation Set for NSGA-IIId wheel-4obj-free @ 100 </text></g><g transform="matrix(1,0,0,1,0,0)"><text x="280.33" y="45.15" style="fill: rgb(0,0,0); fill-opacity: 1.0; font-family: Tahoma; font-size: 20px; font-weight: bold; " clip-path="url(#2399229276557156clip-0)">NFE</text></g><rect x="187" y="59" width="401" height="395" style="fill: rgb(255,255,255); fill-opacity: 1.0" transform="matrix(1,0,0,1,0,0)" clip-path="url(#2399229276557156clip-0)"/><line x1="187" y1="458" x2="588" y2="458" style="stroke-width: 2.0;stroke: rgb(0,0,0);stroke-opacity: 1.0;" transform="matrix(1,0,0,1,0,0)" clip-path="url(#2399229276557156clip-0)"/><g transform="matrix(1,0,0,1,0,0)"><text x="174.92" y="483.17" style="fill: rgb(0,0,0); fill-opacity: 1.0; font-family: Myriad Pro; font-size: 28px; " clip-path="url(#2399229276557156clip-0)">0,407163</text></g><line x1="228.1" y1="460" x2="228.1" y2="458" style="stroke-width: 1.0;stroke: rgb(128,128,128);stroke-opacity: 1.0;" transform="matrix(1,0,0,1,0,0)" clip-path="url(#2399229276557156clip-0)"/><g transform="matrix(1,0,0,1,0,0)"><text x="349.99" y="483.17" style="fill: rgb(0,0,0); fill-opacity: 1.0; font-family: Myriad Pro; font-size: 28px; " clip-path="url(#2399229276557156clip-0)">0,407164</text></g><line x1="403.16" y1="460" x2="403.16" y2="458" style="stroke-width: 1.0;stroke: rgb(128,128,128);stroke-opacity: 1.0;" transform="matrix(1,0,0,1,0,0)" clip-path="url(#2399229276557156clip-0)"/><g transform="matrix(1,0,0,1,0,0)"><text x="525.05" y="483.17" style="fill: rgb(0,0,0); fill-opacity: 1.0; font-family: Myriad Pro; font-size: 28px; " clip-path="url(#2399229276557156clip-0)">0,407165</text></g><line x1="578.22" y1="460" x2="578.22" y2="458" style="stroke-width: 1.0;stroke: rgb(128,128,128);stroke-opacity: 1.0;" transform="matrix(1,0,0,1,0,0)" clip-path="url(#2399229276557156clip-0)"/><g transform="matrix(1,0,0,1,0,0)"><text x="293.08" y="523.23" style="fill: rgb(64,64,64); fill-opacity: 1.0; font-family: Myriad Pro; font-size: 40px; " clip-path="url(#2399229276557156clip-0)">Objective 1</text></g><line x1="183" y1="59" x2="183" y2="454" style="stroke-width: 2.0;stroke: rgb(0,0,0);stroke-opacity: 1.0;" transform="matrix(1,0,0,1,0,0)" clip-path="url(#2399229276557156clip-0)"/><g transform="matrix(1,0,0,1,0,0)"><text x="56.29" y="448.36" style="fill: rgb(0,0,0); fill-opacity: 1.0; font-family: Myriad Pro; font-size: 28px; " clip-path="url(#2399229276557156clip-0)">10,390575</text></g><line x1="181" y1="441.19" x2="183" y2="441.19" style="stroke-width: 1.0;stroke: rgb(128,128,128);stroke-opacity: 1.0;" transform="matrix(1,0,0,1,0,0)" clip-path="url(#2399229276557156clip-0)"/><g transform="matrix(1,0,0,1,0,0)"><text x="56.29" y="390.94" style="fill: rgb(0,0,0); fill-opacity: 1.0; font-family: Myriad Pro; font-size: 28px; " clip-path="url(#2399229276557156clip-0)">10,390600</text></g><line x1="181" y1="383.78" x2="183" y2="383.78" style="stroke-width: 1.0;stroke: rgb(128,128,128);stroke-opacity: 1.0;" transform="matrix(1,0,0,1,0,0)" clip-path="url(#2399229276557156clip-0)"/><g transform="matrix(1,0,0,1,0,0)"><text x="56.29" y="333.53" style="fill: rgb(0,0,0); fill-opacity: 1.0; font-family: Myriad Pro; font-size: 28px; " clip-path="url(#2399229276557156clip-0)">10,390625</text></g><line x1="181" y1="326.36" x2="183" y2="326.36" style="stroke-width: 1.0;stroke: rgb(128,128,128);stroke-opacity: 1.0;" transform="matrix(1,0,0,1,0,0)" clip-path="url(#2399229276557156clip-0)"/><g transform="matrix(1,0,0,1,0,0)"><text x="56.29" y="276.11" style="fill: rgb(0,0,0); fill-opacity: 1.0; font-family: Myriad Pro; font-size: 28px; " clip-path="url(#2399229276557156clip-0)">10,390650</text></g><line x1="181" y1="268.94" x2="183" y2="268.94" style="stroke-width: 1.0;stroke: rgb(128,128,128);stroke-opacity: 1.0;" transform="matrix(1,0,0,1,0,0)" clip-path="url(#2399229276557156clip-0)"/><g transform="matrix(1,0,0,1,0,0)"><text x="56.29" y="218.7" style="fill: rgb(0,0,0); fill-opacity: 1.0; font-family: Myriad Pro; font-size: 28px; " clip-path="url(#2399229276557156clip-0)">10,390675</text></g><line x1="181" y1="211.53" x2="183" y2="211.53" style="stroke-width: 1.0;stroke: rgb(128,128,128);stroke-opacity: 1.0;" transform="matrix(1,0,0,1,0,0)" clip-path="url(#2399229276557156clip-0)"/><g transform="matrix(1,0,0,1,0,0)"><text x="56.29" y="161.28" style="fill: rgb(0,0,0); fill-opacity: 1.0; font-family: Myriad Pro; font-size: 28px; " clip-path="url(#2399229276557156clip-0)">10,390700</text></g><line x1="181" y1="154.11" x2="183" y2="154.11" style="stroke-width: 1.0;stroke: rgb(128,128,128);stroke-opacity: 1.0;" transform="matrix(1,0,0,1,0,0)" clip-path="url(#2399229276557156clip-0)"/><g transform="matrix(1,0,0,1,0,0)"><text x="56.29" y="103.86" style="fill: rgb(0,0,0); fill-opacity: 1.0; font-family: Myriad Pro; font-size: 28px; " clip-path="url(#2399229276557156clip-0)">10,390725</text></g><line x1="181" y1="96.7" x2="183" y2="96.7" style="stroke-width: 1.0;stroke: rgb(128,128,128);stroke-opacity: 1.0;" transform="matrix(1,0,0,1,0,0)" clip-path="url(#2399229276557156clip-0)"/><g transform="matrix(0,-1,1,0,-225.204117,287.795883)"><text x="-63.13" y="266.74" style="fill: rgb(64,64,64); fill-opacity: 1.0; font-family: Myriad Pro; font-size: 40px; " clip-path="url(#2399229276557156clip-1)">Objective 2</text></g><line x1="228.1" y1="59" x2="228.1" y2="454" style="stroke-width: 2.0;stroke: rgb(192,192,192);stroke-opacity: 1.0;stroke-dasharray: 2.0, 2.0;" transform="matrix(1,0,0,1,0,0)" clip-path="url(#2399229276557156clip-2)"/><line x1="403.16" y1="59" x2="403.16" y2="454" style="stroke-width: 2.0;stroke: rgb(192,192,192);stroke-opacity: 1.0;stroke-dasharray: 2.0, 2.0;" transform="matrix(1,0,0,1,0,0)" clip-path="url(#2399229276557156clip-2)"/><line x1="578.22" y1="59" x2="578.22" y2="454" style="stroke-width: 2.0;stroke: rgb(192,192,192);stroke-opacity: 1.0;stroke-dasharray: 2.0, 2.0;" transform="matrix(1,0,0,1,0,0)" clip-path="url(#2399229276557156clip-2)"/><line x1="187" y1="441.19" x2="588" y2="441.19" style="stroke-width: 2.0;stroke: rgb(192,192,192);stroke-opacity: 1.0;stroke-dasharray: 2.0, 2.0;" transform="matrix(1,0,0,1,0,0)" clip-path="url(#2399229276557156clip-2)"/><line x1="187" y1="383.78" x2="588" y2="383.78" style="stroke-width: 2.0;stroke: rgb(192,192,192);stroke-opacity: 1.0;stroke-dasharray: 2.0, 2.0;" transform="matrix(1,0,0,1,0,0)" clip-path="url(#2399229276557156clip-2)"/><line x1="187" y1="326.36" x2="588" y2="326.36" style="stroke-width: 2.0;stroke: rgb(192,192,192);stroke-opacity: 1.0;stroke-dasharray: 2.0, 2.0;" transform="matrix(1,0,0,1,0,0)" clip-path="url(#2399229276557156clip-2)"/><line x1="187" y1="268.94" x2="588" y2="268.94" style="stroke-width: 2.0;stroke: rgb(192,192,192);stroke-opacity: 1.0;stroke-dasharray: 2.0, 2.0;" transform="matrix(1,0,0,1,0,0)" clip-path="url(#2399229276557156clip-2)"/><line x1="187" y1="211.53" x2="588" y2="211.53" style="stroke-width: 2.0;stroke: rgb(192,192,192);stroke-opacity: 1.0;stroke-dasharray: 2.0, 2.0;" transform="matrix(1,0,0,1,0,0)" clip-path="url(#2399229276557156clip-2)"/><line x1="187" y1="154.11" x2="588" y2="154.11" style="stroke-width: 2.0;stroke: rgb(192,192,192);stroke-opacity: 1.0;stroke-dasharray: 2.0, 2.0;" transform="matrix(1,0,0,1,0,0)" clip-path="url(#2399229276557156clip-2)"/><line x1="187" y1="96.7" x2="588" y2="96.7" style="stroke-width: 2.0;stroke: rgb(192,192,192);stroke-opacity: 1.0;stroke-dasharray: 2.0, 2.0;" transform="matrix(1,0,0,1,0,0)" clip-path="url(#2399229276557156clip-2)"/><g style="fill: rgb(237,202,124); fill-opacity: 1.0; stroke: none" transform="matrix(1,0,0,1,0,0)" clip-path="url(#2399229276557156clip-2)"><path d="M 323.2 226.99 L 329.2 226.99 L 329.2 232.99 L 323.2 232.99 L 323.2 226.99 M 323.2 226.99"/></g><g style="stroke-width: 1.0;stroke: rgb(237,202,124);stroke-opacity: 1.0;; fill: none" transform="matrix(1,0,0,1,0,0)" clip-path="url(#2399229276557156clip-2)"><path d="M 323.2 226.99 L 329.2 226.99 L 329.2 232.99 L 323.2 232.99 L 323.2 226.99 M 323.2 226.99"/></g></svg>
